# xmcd
#
# Track frame offsets:
#	150
#	13642
#	27330
#	41009
#	53987
#	64061
#	73985
#	85025
#	95841
#	106467
#	118515
#	129862
#
# Disc length: 1909 seconds
#
# Revision: 0
# Processed by: cddbd v1.5.2PL0 Copyright (c) Steve Scherf et al.
# Submitted via: audiograbber 1.83.01
#
DISCID=a307730c
DTITLE=Hank Locklin - Irish Songs - Country Style
DYEAR=1965
DGENRE=Country
TTITLE0=The Old Bog Road
TTITLE1=Too-Ra-Loo-Ra-Loo-Ral (That's An Irish Lullaby)
TTITLE2=Danny Dear
TTITLE3=If We Only Had Old Ireland Over Here
TTITLE4=I'll Take You Home Again Kathleen
TTITLE5=My Wild Irish Rose
TTITLE6=Danny Boy
TTITLE7=When Irish Eyes Are Smiling
TTITLE8=A Little Bit Of Heaven
TTITLE9=Galway Bay
TTITLE10=Kevin Barry
TTITLE11=Forty Shades Of Green
EXTD=
EXTT0=
EXTT1=
EXTT2=
EXTT3=
EXTT4=
EXTT5=
EXTT6=
EXTT7=
EXTT8=
EXTT9=
EXTT10=
EXTT11=
PLAYORDER=
